{
    "asset" : {
        "generator" : "Khronos glTF Blender I/O v1.8.19",
        "version" : "2.0"
    },
    "scene" : 0,
    "scenes" : [
        {
            "name" : "Scene",
            "nodes" : [
                0
            ]
        }
    ],
    "nodes" : [
        {
            "mesh" : 0,
            "name" : "coubertin 08",
            "rotation" : [
                -0.04029574990272522,
                0.8630257844924927,
                0.04818771779537201,
                0.5012391805648804
            ]
        }
    ],
    "materials" : [
        {
            "doubleSided" : true,
            "name" : "Material_0",
            "pbrMetallicRoughness" : {
                "baseColorTexture" : {
                    "index" : 0
                },
                "metallicFactor" : 0
            }
        }
    ],
    "meshes" : [
        {
            "name" : "coubertin 08",
            "primitives" : [
                {
                    "attributes" : {
                        "POSITION" : 0,
                        "NORMAL" : 1,
                        "TEXCOORD_0" : 2
                    },
                    "indices" : 3,
                    "material" : 0
                }
            ]
        }
    ],
    "textures" : [
        {
            "sampler" : 0,
            "source" : 0
        }
    ],
    "images" : [
        {
            "mimeType" : "image/jpeg",
            "name" : "coubertin 0801",
            "uri" : "coubertin%200801.jpg"
        }
    ],
    "accessors" : [
        {
            "bufferView" : 0,
            "componentType" : 5126,
            "count" : 17930,
            "max" : [
                3.919816493988037,
                16.50226402282715,
                5.508373737335205
            ],
            "min" : [
                -6.5520453453063965,
                -0.42241525650024414,
                -3.9396135807037354
            ],
            "type" : "VEC3"
        },
        {
            "bufferView" : 1,
            "componentType" : 5126,
            "count" : 17930,
            "type" : "VEC3"
        },
        {
            "bufferView" : 2,
            "componentType" : 5126,
            "count" : 17930,
            "type" : "VEC2"
        },
        {
            "bufferView" : 3,
            "componentType" : 5123,
            "count" : 74514,
            "type" : "SCALAR"
        }
    ],
    "bufferViews" : [
        {
            "buffer" : 0,
            "byteLength" : 215160,
            "byteOffset" : 0
        },
        {
            "buffer" : 0,
            "byteLength" : 215160,
            "byteOffset" : 215160
        },
        {
            "buffer" : 0,
            "byteLength" : 143440,
            "byteOffset" : 430320
        },
        {
            "buffer" : 0,
            "byteLength" : 149028,
            "byteOffset" : 573760
        }
    ],
    "samplers" : [
        {
            "magFilter" : 9729,
            "minFilter" : 9987
        }
    ],
    "buffers" : [
        {
            "byteLength" : 722788,
            "uri" : "sculpture-place-coubertin-number-8.bin"
        }
    ]
}
