{
    "asset" : {
        "generator" : "Khronos glTF Blender I/O v1.8.19",
        "version" : "2.0"
    },
    "scene" : 0,
    "scenes" : [
        {
            "name" : "Scene",
            "nodes" : [
                0
            ]
        }
    ],
    "nodes" : [
        {
            "mesh" : 0,
            "name" : "deluge_-_LowPoly",
            "rotation" : [
                0.00974772498011589,
                0.1456436961889267,
                -0.015999726951122284,
                0.9891597032546997
            ]
        }
    ],
    "materials" : [
        {
            "doubleSided" : true,
            "name" : "deluge_-_LowPoly_Material_u1_v1",
            "pbrMetallicRoughness" : {
                "baseColorTexture" : {
                    "index" : 0
                },
                "metallicFactor" : 0
            }
        }
    ],
    "meshes" : [
        {
            "name" : "deluge_-_LowPoly",
            "primitives" : [
                {
                    "attributes" : {
                        "POSITION" : 0,
                        "NORMAL" : 1,
                        "TEXCOORD_0" : 2
                    },
                    "indices" : 3,
                    "material" : 0
                }
            ]
        }
    ],
    "textures" : [
        {
            "sampler" : 0,
            "source" : 0
        }
    ],
    "images" : [
        {
            "mimeType" : "image/jpeg",
            "name" : "deluge_-_LowPoly_u1_v1",
            "uri" : "deluge_-_LowPoly_u1_v1.jpg"
        }
    ],
    "accessors" : [
        {
            "bufferView" : 0,
            "componentType" : 5126,
            "count" : 149997,
            "max" : [
                8.812231063842773,
                37.32456970214844,
                9.131631851196289
            ],
            "min" : [
                -7.4956207275390625,
                -0.4888423979282379,
                -10.535269737243652
            ],
            "type" : "VEC3"
        },
        {
            "bufferView" : 1,
            "componentType" : 5126,
            "count" : 149997,
            "type" : "VEC3"
        },
        {
            "bufferView" : 2,
            "componentType" : 5126,
            "count" : 149997,
            "type" : "VEC2"
        },
        {
            "bufferView" : 3,
            "componentType" : 5125,
            "count" : 149997,
            "type" : "SCALAR"
        }
    ],
    "bufferViews" : [
        {
            "buffer" : 0,
            "byteLength" : 1799964,
            "byteOffset" : 0
        },
        {
            "buffer" : 0,
            "byteLength" : 1799964,
            "byteOffset" : 1799964
        },
        {
            "buffer" : 0,
            "byteLength" : 1199976,
            "byteOffset" : 3599928
        },
        {
            "buffer" : 0,
            "byteLength" : 599988,
            "byteOffset" : 4799904
        }
    ],
    "samplers" : [
        {
            "magFilter" : 9729,
            "minFilter" : 9987
        }
    ],
    "buffers" : [
        {
            "byteLength" : 5399892,
            "uri" : "scene-of-the-deluge.bin"
        }
    ]
}
