{
    "asset" : {
        "generator" : "Khronos glTF Blender I/O v1.8.19",
        "version" : "2.0"
    },
    "extensionsUsed" : [
        "KHR_materials_transmission"
    ],
    "scene" : 0,
    "scenes" : [
        {
            "name" : "Scene",
            "nodes" : [
                2
            ]
        }
    ],
    "nodes" : [
        {
            "mesh" : 0,
            "name" : "Plane.010",
            "translation" : [
                -1.1211695671081543,
                1.913720965385437,
                -6.377179145812988
            ]
        },
        {
            "mesh" : 1,
            "name" : "Plane.014",
            "rotation" : [
                0,
                -0.13373050093650818,
                0,
                0.991017758846283
            ],
            "translation" : [
                1.1224116086959839,
                1.7530901432037354,
                -6.356761932373047
            ]
        },
        {
            "children" : [
                0,
                1
            ],
            "mesh" : 2,
            "name" : "DoorFrame",
            "scale" : [
                0.5196093916893005,
                0.5196093916893005,
                0.5196093916893005
            ],
            "translation" : [
                0,
                0,
                3.299999952316284
            ]
        }
    ],
    "materials" : [
        {
            "doubleSided" : true,
            "name" : "Black",
            "pbrMetallicRoughness" : {
                "baseColorFactor" : [
                    0.10653308779001236,
                    0.10653308779001236,
                    0.10653308779001236,
                    1
                ],
                "roughnessFactor" : 0.31102362275123596
            }
        },
        {
            "doubleSided" : true,
            "name" : "WornWood",
            "normalTexture" : {
                "index" : 0,
                "scale" : 2
            },
            "pbrMetallicRoughness" : {
                "baseColorTexture" : {
                    "index" : 1
                },
                "metallicFactor" : 0,
                "metallicRoughnessTexture" : {
                    "index" : 2
                }
            }
        },
        {
            "alphaMode" : "BLEND",
            "doubleSided" : true,
            "extensions" : {
                "KHR_materials_transmission" : {
                    "transmissionFactor" : 1
                }
            },
            "name" : "Glass",
            "pbrMetallicRoughness" : {
                "baseColorFactor" : [
                    0.07323553413152695,
                    0.07323553413152695,
                    0.07323553413152695,
                    0.5669291615486145
                ],
                "metallicFactor" : 0,
                "roughnessFactor" : 0
            }
        }
    ],
    "meshes" : [
        {
            "name" : "Plane.012",
            "primitives" : [
                {
                    "attributes" : {
                        "POSITION" : 0,
                        "NORMAL" : 1,
                        "TEXCOORD_0" : 2
                    },
                    "indices" : 3,
                    "material" : 0
                },
                {
                    "attributes" : {
                        "POSITION" : 4,
                        "NORMAL" : 5,
                        "TEXCOORD_0" : 6
                    },
                    "indices" : 7,
                    "material" : 1
                },
                {
                    "attributes" : {
                        "POSITION" : 8,
                        "NORMAL" : 9,
                        "TEXCOORD_0" : 10
                    },
                    "indices" : 11,
                    "material" : 2
                }
            ]
        },
        {
            "name" : "Plane.017",
            "primitives" : [
                {
                    "attributes" : {
                        "POSITION" : 12,
                        "NORMAL" : 13,
                        "TEXCOORD_0" : 14
                    },
                    "indices" : 15,
                    "material" : 0
                },
                {
                    "attributes" : {
                        "POSITION" : 16,
                        "NORMAL" : 17,
                        "TEXCOORD_0" : 18
                    },
                    "indices" : 19,
                    "material" : 1
                },
                {
                    "attributes" : {
                        "POSITION" : 20,
                        "NORMAL" : 21,
                        "TEXCOORD_0" : 22
                    },
                    "indices" : 23,
                    "material" : 2
                }
            ]
        },
        {
            "name" : "Plane.015",
            "primitives" : [
                {
                    "attributes" : {
                        "POSITION" : 24,
                        "NORMAL" : 25,
                        "TEXCOORD_0" : 26
                    },
                    "indices" : 27,
                    "material" : 0
                },
                {
                    "attributes" : {
                        "POSITION" : 28,
                        "NORMAL" : 29,
                        "TEXCOORD_0" : 30
                    },
                    "indices" : 31,
                    "material" : 1
                }
            ]
        }
    ],
    "textures" : [
        {
            "sampler" : 0,
            "source" : 0
        },
        {
            "sampler" : 0,
            "source" : 1
        },
        {
            "sampler" : 0,
            "source" : 2
        }
    ],
    "images" : [
        {
            "mimeType" : "image/png",
            "name" : "TexturesCom_Wood_Worn2_1K_normal",
            "uri" : "TexturesCom_Wood_Worn2_1K_normal.png"
        },
        {
            "mimeType" : "image/png",
            "name" : "TexturesCom_Wood_Worn2_1K_albedo",
            "uri" : "TexturesCom_Wood_Worn2_1K_albedo.png"
        },
        {
            "mimeType" : "image/png",
            "name" : "TexturesCom_Wood_Worn2_1K_roughness",
            "uri" : "TexturesCom_Wood_Worn2_1K_roughness.png"
        }
    ],
    "accessors" : [
        {
            "bufferView" : 0,
            "componentType" : 5126,
            "count" : 9150,
            "max" : [
                1.0488083362579346,
                0.9833168983459473,
                0.19066524505615234
            ],
            "min" : [
                0.1953943371772766,
                -1.0971827507019043,
                0.019316107034683228
            ],
            "type" : "VEC3"
        },
        {
            "bufferView" : 1,
            "componentType" : 5126,
            "count" : 9150,
            "type" : "VEC3"
        },
        {
            "bufferView" : 2,
            "componentType" : 5126,
            "count" : 9150,
            "type" : "VEC2"
        },
        {
            "bufferView" : 3,
            "componentType" : 5123,
            "count" : 43560,
            "type" : "SCALAR"
        },
        {
            "bufferView" : 4,
            "componentType" : 5126,
            "count" : 475,
            "max" : [
                1.0973773002624512,
                1.200385332107544,
                0.04252821207046509
            ],
            "min" : [
                1.1920928955078125e-07,
                -1.842724084854126,
                -0.02471025288105011
            ],
            "type" : "VEC3"
        },
        {
            "bufferView" : 5,
            "componentType" : 5126,
            "count" : 475,
            "type" : "VEC3"
        },
        {
            "bufferView" : 6,
            "componentType" : 5126,
            "count" : 475,
            "type" : "VEC2"
        },
        {
            "bufferView" : 7,
            "componentType" : 5123,
            "count" : 1338,
            "type" : "SCALAR"
        },
        {
            "bufferView" : 8,
            "componentType" : 5126,
            "count" : 36,
            "max" : [
                0.8722742795944214,
                0.9607944488525391,
                0.00453716516494751
            ],
            "min" : [
                0.20399975776672363,
                -0.817328691482544,
                -0.024710223078727722
            ],
            "type" : "VEC3"
        },
        {
            "bufferView" : 9,
            "componentType" : 5126,
            "count" : 36,
            "type" : "VEC3"
        },
        {
            "bufferView" : 10,
            "componentType" : 5126,
            "count" : 36,
            "type" : "VEC2"
        },
        {
            "bufferView" : 11,
            "componentType" : 5123,
            "count" : 60,
            "type" : "SCALAR"
        },
        {
            "bufferView" : 12,
            "componentType" : 5126,
            "count" : 9150,
            "max" : [
                -0.19663649797439575,
                1.143947720527649,
                0.1702481508255005
            ],
            "min" : [
                -1.0500504970550537,
                -0.9365519285202026,
                -0.0011009692680090666
            ],
            "type" : "VEC3"
        },
        {
            "bufferView" : 13,
            "componentType" : 5126,
            "count" : 9150,
            "type" : "VEC3"
        },
        {
            "bufferView" : 14,
            "componentType" : 5126,
            "count" : 9150,
            "type" : "VEC2"
        },
        {
            "bufferView" : 15,
            "componentType" : 5123,
            "count" : 43560,
            "type" : "SCALAR"
        },
        {
            "bufferView" : 16,
            "componentType" : 5126,
            "count" : 475,
            "max" : [
                -0.0012422800064086914,
                1.3610161542892456,
                0.022111138328909874
            ],
            "min" : [
                -1.0986194610595703,
                -1.6820931434631348,
                -0.04512733221054077
            ],
            "type" : "VEC3"
        },
        {
            "bufferView" : 17,
            "componentType" : 5126,
            "count" : 475,
            "type" : "VEC3"
        },
        {
            "bufferView" : 18,
            "componentType" : 5126,
            "count" : 475,
            "type" : "VEC2"
        },
        {
            "bufferView" : 19,
            "componentType" : 5123,
            "count" : 1338,
            "type" : "SCALAR"
        },
        {
            "bufferView" : 20,
            "componentType" : 5126,
            "count" : 36,
            "max" : [
                -0.20524191856384277,
                1.1214252710342407,
                -0.015879914164543152
            ],
            "min" : [
                -0.8735164403915405,
                -0.6566978693008423,
                -0.045127302408218384
            ],
            "type" : "VEC3"
        },
        {
            "bufferView" : 21,
            "componentType" : 5126,
            "count" : 36,
            "type" : "VEC3"
        },
        {
            "bufferView" : 22,
            "componentType" : 5126,
            "count" : 36,
            "type" : "VEC2"
        },
        {
            "bufferView" : 23,
            "componentType" : 5123,
            "count" : 60,
            "type" : "SCALAR"
        },
        {
            "bufferView" : 24,
            "componentType" : 5126,
            "count" : 1920,
            "max" : [
                1.1351852416992188,
                2.6911227703094482,
                -6.343987941741943
            ],
            "min" : [
                -1.1351852416992188,
                0.8133997321128845,
                -6.36953592300415
            ],
            "type" : "VEC3"
        },
        {
            "bufferView" : 25,
            "componentType" : 5126,
            "count" : 1920,
            "type" : "VEC3"
        },
        {
            "bufferView" : 26,
            "componentType" : 5126,
            "count" : 1920,
            "type" : "VEC2"
        },
        {
            "bufferView" : 27,
            "componentType" : 5123,
            "count" : 5232,
            "type" : "SCALAR"
        },
        {
            "bufferView" : 28,
            "componentType" : 5126,
            "count" : 218,
            "max" : [
                1.2058489322662354,
                3.1815342903137207,
                -6.335391521453857
            ],
            "min" : [
                -1.2058489322662354,
                0.005250520538538694,
                -6.413984298706055
            ],
            "type" : "VEC3"
        },
        {
            "bufferView" : 29,
            "componentType" : 5126,
            "count" : 218,
            "type" : "VEC3"
        },
        {
            "bufferView" : 30,
            "componentType" : 5126,
            "count" : 218,
            "type" : "VEC2"
        },
        {
            "bufferView" : 31,
            "componentType" : 5123,
            "count" : 354,
            "type" : "SCALAR"
        }
    ],
    "bufferViews" : [
        {
            "buffer" : 0,
            "byteLength" : 109800,
            "byteOffset" : 0
        },
        {
            "buffer" : 0,
            "byteLength" : 109800,
            "byteOffset" : 109800
        },
        {
            "buffer" : 0,
            "byteLength" : 73200,
            "byteOffset" : 219600
        },
        {
            "buffer" : 0,
            "byteLength" : 87120,
            "byteOffset" : 292800
        },
        {
            "buffer" : 0,
            "byteLength" : 5700,
            "byteOffset" : 379920
        },
        {
            "buffer" : 0,
            "byteLength" : 5700,
            "byteOffset" : 385620
        },
        {
            "buffer" : 0,
            "byteLength" : 3800,
            "byteOffset" : 391320
        },
        {
            "buffer" : 0,
            "byteLength" : 2676,
            "byteOffset" : 395120
        },
        {
            "buffer" : 0,
            "byteLength" : 432,
            "byteOffset" : 397796
        },
        {
            "buffer" : 0,
            "byteLength" : 432,
            "byteOffset" : 398228
        },
        {
            "buffer" : 0,
            "byteLength" : 288,
            "byteOffset" : 398660
        },
        {
            "buffer" : 0,
            "byteLength" : 120,
            "byteOffset" : 398948
        },
        {
            "buffer" : 0,
            "byteLength" : 109800,
            "byteOffset" : 399068
        },
        {
            "buffer" : 0,
            "byteLength" : 109800,
            "byteOffset" : 508868
        },
        {
            "buffer" : 0,
            "byteLength" : 73200,
            "byteOffset" : 618668
        },
        {
            "buffer" : 0,
            "byteLength" : 87120,
            "byteOffset" : 691868
        },
        {
            "buffer" : 0,
            "byteLength" : 5700,
            "byteOffset" : 778988
        },
        {
            "buffer" : 0,
            "byteLength" : 5700,
            "byteOffset" : 784688
        },
        {
            "buffer" : 0,
            "byteLength" : 3800,
            "byteOffset" : 790388
        },
        {
            "buffer" : 0,
            "byteLength" : 2676,
            "byteOffset" : 794188
        },
        {
            "buffer" : 0,
            "byteLength" : 432,
            "byteOffset" : 796864
        },
        {
            "buffer" : 0,
            "byteLength" : 432,
            "byteOffset" : 797296
        },
        {
            "buffer" : 0,
            "byteLength" : 288,
            "byteOffset" : 797728
        },
        {
            "buffer" : 0,
            "byteLength" : 120,
            "byteOffset" : 798016
        },
        {
            "buffer" : 0,
            "byteLength" : 23040,
            "byteOffset" : 798136
        },
        {
            "buffer" : 0,
            "byteLength" : 23040,
            "byteOffset" : 821176
        },
        {
            "buffer" : 0,
            "byteLength" : 15360,
            "byteOffset" : 844216
        },
        {
            "buffer" : 0,
            "byteLength" : 10464,
            "byteOffset" : 859576
        },
        {
            "buffer" : 0,
            "byteLength" : 2616,
            "byteOffset" : 870040
        },
        {
            "buffer" : 0,
            "byteLength" : 2616,
            "byteOffset" : 872656
        },
        {
            "buffer" : 0,
            "byteLength" : 1744,
            "byteOffset" : 875272
        },
        {
            "buffer" : 0,
            "byteLength" : 708,
            "byteOffset" : 877016
        }
    ],
    "samplers" : [
        {
            "magFilter" : 9729,
            "minFilter" : 9987
        }
    ],
    "buffers" : [
        {
            "byteLength" : 877724,
            "uri" : "slightly-fancy-door.bin"
        }
    ]
}
