{
    "asset" : {
        "generator" : "Khronos glTF Blender I/O v1.8.19",
        "version" : "2.0"
    },
    "scene" : 0,
    "scenes" : [
        {
            "name" : "Scene",
            "nodes" : [
                0
            ]
        }
    ],
    "nodes" : [
        {
            "mesh" : 0,
            "name" : "gladiateur_mourant_-_LowPoly",
            "rotation" : [
                0.7071068286895752,
                0,
                0,
                0.7071067094802856
            ],
            "scale" : [
                0.11329591274261475,
                0.11329591274261475,
                0.11329591274261475
            ]
        }
    ],
    "materials" : [
        {
            "doubleSided" : true,
            "name" : "gladiateur_mourant_-_LowPoly_Material_u1_v1",
            "pbrMetallicRoughness" : {
                "baseColorTexture" : {
                    "index" : 0
                },
                "metallicFactor" : 0
            }
        }
    ],
    "meshes" : [
        {
            "name" : "gladiateur_mourant_-_LowPoly",
            "primitives" : [
                {
                    "attributes" : {
                        "POSITION" : 0,
                        "NORMAL" : 1,
                        "TEXCOORD_0" : 2
                    },
                    "indices" : 3,
                    "material" : 0
                }
            ]
        }
    ],
    "textures" : [
        {
            "sampler" : 0,
            "source" : 0
        }
    ],
    "images" : [
        {
            "mimeType" : "image/jpeg",
            "name" : "gladiateur_mourant_-_LowPoly_u1_v1",
            "uri" : "gladiateur_mourant_-_LowPoly_u1_v1.jpg"
        }
    ],
    "accessors" : [
        {
            "bufferView" : 0,
            "componentType" : 5126,
            "count" : 9625,
            "max" : [
                9.92017650604248,
                4.978684425354004,
                0.014708115719258785
            ],
            "min" : [
                -11.965580940246582,
                -4.774409294128418,
                -11.495807647705078
            ],
            "type" : "VEC3"
        },
        {
            "bufferView" : 1,
            "componentType" : 5126,
            "count" : 9625,
            "type" : "VEC3"
        },
        {
            "bufferView" : 2,
            "componentType" : 5126,
            "count" : 9625,
            "type" : "VEC2"
        },
        {
            "bufferView" : 3,
            "componentType" : 5123,
            "count" : 18744,
            "type" : "SCALAR"
        }
    ],
    "bufferViews" : [
        {
            "buffer" : 0,
            "byteLength" : 115500,
            "byteOffset" : 0
        },
        {
            "buffer" : 0,
            "byteLength" : 115500,
            "byteOffset" : 115500
        },
        {
            "buffer" : 0,
            "byteLength" : 77000,
            "byteOffset" : 231000
        },
        {
            "buffer" : 0,
            "byteLength" : 37488,
            "byteOffset" : 308000
        }
    ],
    "samplers" : [
        {
            "magFilter" : 9729,
            "minFilter" : 9987
        }
    ],
    "buffers" : [
        {
            "byteLength" : 345488,
            "uri" : "dying-gladiator.bin"
        }
    ]
}
