{
    "asset" : {
        "generator" : "Khronos glTF Blender I/O v1.8.19",
        "version" : "2.0"
    },
    "scene" : 0,
    "scenes" : [
        {
            "name" : "Scene",
            "nodes" : [
                0
            ]
        }
    ],
    "nodes" : [
        {
            "mesh" : 0,
            "name" : "Idyl_-_CleanUp_-_LowPoly",
            "rotation" : [
                -0.01844959892332554,
                -0.09801895171403885,
                -0.00586783466860652,
                0.994996190071106
            ]
        }
    ],
    "materials" : [
        {
            "doubleSided" : true,
            "name" : "Idyl_-_CleanUp_-_LowPoly",
            "pbrMetallicRoughness" : {
                "baseColorTexture" : {
                    "index" : 0
                },
                "metallicFactor" : 0
            }
        }
    ],
    "meshes" : [
        {
            "name" : "Idyl_-_CleanUp_-_LowPoly",
            "primitives" : [
                {
                    "attributes" : {
                        "POSITION" : 0,
                        "NORMAL" : 1,
                        "TEXCOORD_0" : 2
                    },
                    "indices" : 3,
                    "material" : 0
                }
            ]
        }
    ],
    "textures" : [
        {
            "sampler" : 0,
            "source" : 0
        }
    ],
    "images" : [
        {
            "mimeType" : "image/jpeg",
            "name" : "Idyl_-_CleanUp_-_LowPoly",
            "uri" : "Idyl_-_CleanUp_-_LowPoly.jpg"
        }
    ],
    "accessors" : [
        {
            "bufferView" : 0,
            "componentType" : 5126,
            "count" : 29692,
            "max" : [
                7.0698933601379395,
                9.701831817626953,
                5.358329772949219
            ],
            "min" : [
                -7.714202404022217,
                -0.18736672401428223,
                -5.699939250946045
            ],
            "type" : "VEC3"
        },
        {
            "bufferView" : 1,
            "componentType" : 5126,
            "count" : 29692,
            "type" : "VEC3"
        },
        {
            "bufferView" : 2,
            "componentType" : 5126,
            "count" : 29692,
            "type" : "VEC2"
        },
        {
            "bufferView" : 3,
            "componentType" : 5123,
            "count" : 91683,
            "type" : "SCALAR"
        }
    ],
    "bufferViews" : [
        {
            "buffer" : 0,
            "byteLength" : 356304,
            "byteOffset" : 0
        },
        {
            "buffer" : 0,
            "byteLength" : 356304,
            "byteOffset" : 356304
        },
        {
            "buffer" : 0,
            "byteLength" : 237536,
            "byteOffset" : 712608
        },
        {
            "buffer" : 0,
            "byteLength" : 183366,
            "byteOffset" : 950144
        }
    ],
    "samplers" : [
        {
            "magFilter" : 9729,
            "minFilter" : 9987
        }
    ],
    "buffers" : [
        {
            "byteLength" : 1133512,
            "uri" : "idyl.bin"
        }
    ]
}
