{
    "asset" : {
        "generator" : "Khronos glTF Blender I/O v1.8.19",
        "version" : "2.0"
    },
    "scene" : 0,
    "scenes" : [
        {
            "name" : "Scene",
            "nodes" : [
                0
            ]
        }
    ],
    "nodes" : [
        {
            "mesh" : 0,
            "name" : "Armchair",
            "translation" : [
                0,
                0.015119656920433044,
                0
            ]
        }
    ],
    "materials" : [
        {
            "doubleSided" : true,
            "name" : "Material",
            "pbrMetallicRoughness" : {
                "baseColorFactor" : [
                    0.800000011920929,
                    0.6518765091896057,
                    0.4686459004878998,
                    1
                ],
                "metallicFactor" : 0,
                "roughnessFactor" : 0.5
            }
        },
        {
            "doubleSided" : true,
            "name" : "Material.001",
            "pbrMetallicRoughness" : {
                "baseColorFactor" : [
                    0.08001139014959335,
                    0.05247608572244644,
                    0.04632626846432686,
                    1
                ],
                "metallicFactor" : 0,
                "roughnessFactor" : 0.5
            }
        },
        {
            "doubleSided" : true,
            "name" : "Material.002",
            "pbrMetallicRoughness" : {
                "baseColorFactor" : [
                    0.018848557025194168,
                    0.007682450581341982,
                    0.004306297283619642,
                    1
                ],
                "metallicFactor" : 0,
                "roughnessFactor" : 0.5
            }
        }
    ],
    "meshes" : [
        {
            "name" : "Armchair",
            "primitives" : [
                {
                    "attributes" : {
                        "POSITION" : 0,
                        "NORMAL" : 1
                    },
                    "indices" : 2,
                    "material" : 0
                },
                {
                    "attributes" : {
                        "POSITION" : 3,
                        "NORMAL" : 4
                    },
                    "indices" : 5,
                    "material" : 1
                },
                {
                    "attributes" : {
                        "POSITION" : 6,
                        "NORMAL" : 7
                    },
                    "indices" : 8,
                    "material" : 2
                }
            ]
        }
    ],
    "accessors" : [
        {
            "bufferView" : 0,
            "componentType" : 5126,
            "count" : 1456,
            "max" : [
                0.6419024467468262,
                0.9657338261604309,
                0.4363161027431488
            ],
            "min" : [
                -0.6419024467468262,
                0.019386587664484978,
                -0.6782643795013428
            ],
            "type" : "VEC3"
        },
        {
            "bufferView" : 1,
            "componentType" : 5126,
            "count" : 1456,
            "type" : "VEC3"
        },
        {
            "bufferView" : 2,
            "componentType" : 5123,
            "count" : 2184,
            "type" : "SCALAR"
        },
        {
            "bufferView" : 3,
            "componentType" : 5126,
            "count" : 816,
            "max" : [
                0.5882307291030884,
                0.9808908104896545,
                0.4325537085533142
            ],
            "min" : [
                -0.5882307291030884,
                0.25367024540901184,
                -0.6361108422279358
            ],
            "type" : "VEC3"
        },
        {
            "bufferView" : 4,
            "componentType" : 5126,
            "count" : 816,
            "type" : "VEC3"
        },
        {
            "bufferView" : 5,
            "componentType" : 5123,
            "count" : 1224,
            "type" : "SCALAR"
        },
        {
            "bufferView" : 6,
            "componentType" : 5126,
            "count" : 2048,
            "max" : [
                0.6400853991508484,
                0.9895173907279968,
                0.44082561135292053
            ],
            "min" : [
                -0.6400853991508484,
                -0.015148001722991467,
                -0.6635234355926514
            ],
            "type" : "VEC3"
        },
        {
            "bufferView" : 7,
            "componentType" : 5126,
            "count" : 2048,
            "type" : "VEC3"
        },
        {
            "bufferView" : 8,
            "componentType" : 5123,
            "count" : 3072,
            "type" : "SCALAR"
        }
    ],
    "bufferViews" : [
        {
            "buffer" : 0,
            "byteLength" : 17472,
            "byteOffset" : 0
        },
        {
            "buffer" : 0,
            "byteLength" : 17472,
            "byteOffset" : 17472
        },
        {
            "buffer" : 0,
            "byteLength" : 4368,
            "byteOffset" : 34944
        },
        {
            "buffer" : 0,
            "byteLength" : 9792,
            "byteOffset" : 39312
        },
        {
            "buffer" : 0,
            "byteLength" : 9792,
            "byteOffset" : 49104
        },
        {
            "buffer" : 0,
            "byteLength" : 2448,
            "byteOffset" : 58896
        },
        {
            "buffer" : 0,
            "byteLength" : 24576,
            "byteOffset" : 61344
        },
        {
            "buffer" : 0,
            "byteLength" : 24576,
            "byteOffset" : 85920
        },
        {
            "buffer" : 0,
            "byteLength" : 6144,
            "byteOffset" : 110496
        }
    ],
    "buffers" : [
        {
            "byteLength" : 116640,
            "uri" : "armchair01.bin"
        }
    ]
}
